<svg width="43" height="43" viewBox="0 0 43 43" fill="none" xmlns="http://www.w3.org/2000/svg">
<path fill-rule="evenodd" clip-rule="evenodd" d="M21.5 41.5C32.5457 41.5 41.5 32.5457 41.5 21.5C41.5 10.4543 32.5457 1.5 21.5 1.5C10.4543 1.5 1.5 10.4543 1.5 21.5C1.5 32.5457 10.4543 41.5 21.5 41.5ZM21.5 43C33.3741 43 43 33.3741 43 21.5C43 9.62588 33.3741 0 21.5 0C9.62588 0 0 9.62588 0 21.5C0 33.3741 9.62588 43 21.5 43Z" fill="white"/>
<path fill-rule="evenodd" clip-rule="evenodd" d="M21.5 32.5C27.5751 32.5 32.5 27.5751 32.5 21.5C32.5 15.4249 27.5751 10.5 21.5 10.5C15.4249 10.5 10.5 15.4249 10.5 21.5C10.5 27.5751 15.4249 32.5 21.5 32.5ZM21.5 34C28.4036 34 34 28.4036 34 21.5C34 14.5964 28.4036 9 21.5 9C14.5964 9 9 14.5964 9 21.5C9 28.4036 14.5964 34 21.5 34Z" fill="white"/>
<path fill-rule="evenodd" clip-rule="evenodd" d="M17.5 21C18.3284 21 19 20.3284 19 19.5C19 18.6716 18.3284 18 17.5 18C16.6716 18 16 18.6716 16 19.5C16 20.3284 16.6716 21 17.5 21Z" fill="white"/>
<path fill-rule="evenodd" clip-rule="evenodd" d="M26.5 21C27.3284 21 28 20.3284 28 19.5C28 18.6716 27.3284 18 26.5 18C25.6716 18 25 18.6716 25 19.5C25 20.3284 25.6716 21 26.5 21Z" fill="white"/>
<path fill-rule="evenodd" clip-rule="evenodd" d="M16.25 26C16.25 25.5858 16.5858 25.25 17 25.25H26C26.4142 25.25 26.75 25.5858 26.75 26C26.75 26.4142 26.4142 26.75 26 26.75H17C16.5858 26.75 16.25 26.4142 16.25 26Z" fill="white"/>
</svg>
