<svg width="43" height="43" viewBox="0 0 43 43" fill="none" xmlns="http://www.w3.org/2000/svg">
<path fill-rule="evenodd" clip-rule="evenodd" d="M21.5 41.5C32.5457 41.5 41.5 32.5457 41.5 21.5C41.5 10.4543 32.5457 1.5 21.5 1.5C10.4543 1.5 1.5 10.4543 1.5 21.5C1.5 32.5457 10.4543 41.5 21.5 41.5ZM21.5 43C33.3741 43 43 33.3741 43 21.5C43 9.62588 33.3741 0 21.5 0C9.62588 0 0 9.62588 0 21.5C0 33.3741 9.62588 43 21.5 43Z" fill="white"/>
<path fill-rule="evenodd" clip-rule="evenodd" d="M16.997 11.8364C16.2821 11.8881 15.4962 11.9449 14.6667 11.9449C12.6079 11.9449 11.75 13.0855 11.75 13.8265V29.7195C11.75 29.7196 11.75 29.7196 11 29.7196C10.25 29.7196 10.25 29.7196 10.25 29.7195V13.8265C10.25 11.936 12.1421 10.4449 14.6667 10.4449C15.44 10.4449 16.1362 10.3944 16.8283 10.3442C17.1378 10.3218 17.4464 10.2994 17.7607 10.2816C18.7519 10.2256 19.7541 10.2206 20.7961 10.4647C21.8078 10.7017 22.4466 11.0173 22.9069 11.4044C23.1336 11.595 23.2977 11.787 23.4294 11.9555C23.4927 12.0366 23.5388 12.0984 23.5788 12.152C23.6346 12.2268 23.6787 12.2859 23.7415 12.3597C23.9983 12.6616 24.2482 13.0051 24.4294 13.2655C24.4571 13.3053 24.4834 13.3434 24.5081 13.3795H30.8936C32.2881 13.3795 33.75 14.2963 33.75 15.7802V29.7196C33.75 31.2127 32.2858 32.1204 30.8936 32.1204H13.1064C11.7142 32.1204 10.25 31.2126 10.25 29.7195L11 29.7196L11.75 29.7195C11.75 30.0605 12.1768 30.6204 13.1064 30.6204H30.8936C31.8232 30.6204 32.25 30.0607 32.25 29.7196V15.7802C32.25 15.4447 31.8208 14.8795 30.8936 14.8795H23.6952L23.4742 14.5331L23.4735 14.5319L23.4702 14.5269L23.4562 14.5052C23.4436 14.4857 23.4247 14.4568 23.4004 14.4201C23.3519 14.3467 23.2821 14.2428 23.1983 14.1224C23.0284 13.8784 22.8102 13.5799 22.599 13.3316C22.5113 13.2285 22.4128 13.0977 22.3351 12.9945C22.301 12.9491 22.2708 12.909 22.2473 12.879C22.1504 12.7549 22.0586 12.6509 21.9415 12.5524C21.7143 12.3614 21.3145 12.1267 20.4539 11.9252C19.6235 11.7306 18.7925 11.7257 17.8454 11.7792C17.5761 11.7945 17.2926 11.815 16.997 11.8364Z" fill="white"/>
<path fill-rule="evenodd" clip-rule="evenodd" d="M33 18.3704H11V16.8704H33V18.3704Z" fill="white"/>
</svg>
