<svg width="47" height="47" viewBox="0 0 47 47" fill="none" xmlns="http://www.w3.org/2000/svg">
<path d="M23.9994 28.3732C23.5623 28.3732 23.2077 28.0091 23.2077 27.5606V12.9337C23.2077 12.4852 23.5623 12.1211 23.9994 12.1211C24.4364 12.1211 24.7911 12.4852 24.7911 12.9337V27.5606C24.7911 28.0091 24.4364 28.3732 23.9994 28.3732ZM23.9994 31.6236C23.1253 31.6236 22.416 32.3517 22.416 33.2488C22.416 34.1459 23.1253 34.874 23.9994 34.874C24.8734 34.874 25.5827 34.1459 25.5827 33.2488C25.5827 32.3517 24.8734 31.6236 23.9994 31.6236ZM43 35.6866V24.0745C43 18.5553 40.7959 13.2051 36.953 9.39402C33.2748 5.74219 28.4708 3.8602 23.4119 4.00809C13.4049 4.35914 5.14756 13.002 5.00188 23.2733C4.93222 28.3163 6.79586 33.0749 10.2508 36.6731C14.1697 40.7523 19.6878 43 25.7918 43H35.8732C39.8016 43 43 39.7187 43 35.6866ZM35.8526 10.5625C39.3883 14.0697 41.4166 18.9941 41.4166 24.0745V35.6866C41.4166 38.8232 38.9307 41.3748 35.8748 41.3748H25.7933C20.1169 41.3748 14.9978 39.301 11.3798 35.5322C8.22408 32.2476 6.52035 27.9002 6.58527 23.296C6.71828 13.878 14.29 5.95346 23.4658 5.6333C23.6621 5.62517 23.8569 5.62192 24.0516 5.62192C28.4566 5.62192 32.6288 7.36252 35.8526 10.5625Z" fill="white"/>
</svg>
