<svg width="63" height="63" viewBox="0 0 63 63" fill="none" xmlns="http://www.w3.org/2000/svg">
<path d="M23.1978 40.2333C23.1978 41.5718 24.2828 42.6569 25.6213 42.6569C26.9598 42.6569 28.0449 41.5718 28.0449 40.2333L28.0449 23.1505C28.0449 21.812 26.9598 20.7269 25.6213 20.7269C24.2828 20.7269 23.1978 21.812 23.1978 23.1505L23.1978 40.2333Z" fill="white" stroke="white" stroke-width="2" stroke-linecap="round" stroke-linejoin="round"/>
<path d="M36.1528 40.2333C36.1528 41.5718 37.2379 42.6569 38.5764 42.6569C39.9149 42.6569 41 41.5718 41 40.2333L41 23.1505C41 21.812 39.9149 20.7269 38.5764 20.7269C37.2379 20.7269 36.1528 21.812 36.1528 23.1505L36.1528 40.2333Z" fill="white" stroke="white" stroke-width="2" stroke-linecap="round" stroke-linejoin="round"/>
</svg>
