<svg width="63" height="63" viewBox="0 0 63 63" fill="none" xmlns="http://www.w3.org/2000/svg">
<path fill-rule="evenodd" clip-rule="evenodd" d="M31.5 60.8023C47.6832 60.8023 60.8023 47.6832 60.8023 31.5C60.8023 15.3168 47.6832 2.19767 31.5 2.19767C15.3168 2.19767 2.19767 15.3168 2.19767 31.5C2.19767 47.6832 15.3168 60.8023 31.5 60.8023ZM31.5 63C48.897 63 63 48.897 63 31.5C63 14.103 48.897 0 31.5 0C14.103 0 0 14.103 0 31.5C0 48.897 14.103 63 31.5 63Z" fill="#EAC01A"/>
<path fill-rule="evenodd" clip-rule="evenodd" d="M31.5 47.6163C40.4008 47.6163 47.6163 40.4008 47.6163 31.5C47.6163 22.5992 40.4008 15.3837 31.5 15.3837C22.5992 15.3837 15.3837 22.5992 15.3837 31.5C15.3837 40.4008 22.5992 47.6163 31.5 47.6163ZM31.5 49.8139C41.6145 49.8139 49.8139 41.6145 49.8139 31.5C49.8139 21.3855 41.6145 13.186 31.5 13.186C21.3855 13.186 13.186 21.3855 13.186 31.5C13.186 41.6145 21.3855 49.8139 31.5 49.8139Z" fill="#EAC01A"/>
<path fill-rule="evenodd" clip-rule="evenodd" d="M25.6393 30.7674C26.8531 30.7674 27.837 29.7835 27.837 28.5697C27.837 27.356 26.8531 26.3721 25.6393 26.3721C24.4256 26.3721 23.4417 27.356 23.4417 28.5697C23.4417 29.7835 24.4256 30.7674 25.6393 30.7674Z" fill="#EAC01A"/>
<path fill-rule="evenodd" clip-rule="evenodd" d="M38.8256 30.7674C40.0393 30.7674 41.0233 29.7835 41.0233 28.5697C41.0233 27.356 40.0393 26.3721 38.8256 26.3721C37.6119 26.3721 36.6279 27.356 36.6279 28.5697C36.6279 29.7835 37.6119 30.7674 38.8256 30.7674Z" fill="#EAC01A"/>
<path fill-rule="evenodd" clip-rule="evenodd" d="M41.3368 34.4633C41.923 34.6204 42.2708 35.2229 42.1138 35.8091C41.4877 38.1456 40.1082 40.2102 38.1891 41.6828C36.2701 43.1553 33.9187 43.9535 31.4998 43.9535C29.0809 43.9535 26.7296 43.1553 24.8105 41.6828C22.8915 40.2102 21.5119 38.1456 20.8859 35.8091C20.7288 35.2229 21.0767 34.6204 21.6629 34.4633C22.249 34.3063 22.8516 34.6541 23.0086 35.2403C23.5095 37.1095 24.6131 38.7612 26.1484 39.9392C27.6836 41.1173 29.5647 41.7558 31.4998 41.7558C33.4349 41.7558 35.316 41.1173 36.8512 39.9392C38.3865 38.7612 39.4901 37.1095 39.991 35.2403C40.148 34.6541 40.7506 34.3062 41.3368 34.4633Z" fill="#EAC01A"/>
</svg>
