<svg width="43" height="43" viewBox="0 0 43 43" fill="none" xmlns="http://www.w3.org/2000/svg">
<path fill-rule="evenodd" clip-rule="evenodd" d="M21.5 41.5C32.5457 41.5 41.5 32.5457 41.5 21.5C41.5 10.4543 32.5457 1.5 21.5 1.5C10.4543 1.5 1.5 10.4543 1.5 21.5C1.5 32.5457 10.4543 41.5 21.5 41.5ZM21.5 43C33.3741 43 43 33.3741 43 21.5C43 9.62588 33.3741 0 21.5 0C9.62588 0 0 9.62588 0 21.5C0 33.3741 9.62588 43 21.5 43Z" fill="white"/>
<path fill-rule="evenodd" clip-rule="evenodd" d="M14.3939 18.556C13.55 20.0857 13.2955 21.8366 13.6651 23.5153C14.035 25.1953 15.0122 26.7192 16.4516 27.8173C17.8926 28.9166 19.7032 29.5162 21.5752 29.4997C23.4471 29.4832 25.2449 28.8518 26.6632 27.728C28.08 26.6055 29.0266 25.0655 29.3634 23.3798C29.6999 21.6953 29.4112 19.9489 28.537 18.4333C27.6614 16.9157 26.2467 15.7151 24.5183 15.0546C24.1314 14.9067 23.9375 14.4732 24.0854 14.0863C24.2333 13.6994 24.6668 13.5056 25.0537 13.6534C27.092 14.4323 28.7822 15.8567 29.8362 17.6838C30.8903 19.5109 31.243 21.6278 30.8343 23.6736C30.4256 25.7195 29.2808 27.5678 27.5948 28.9037C25.9089 30.2395 23.7862 30.9802 21.5884 30.9996C19.3906 31.019 17.2537 30.3158 15.5418 29.0099C13.8299 27.704 12.649 25.8761 12.2002 23.8378C11.7514 21.7995 12.0625 19.6768 13.0805 17.8314C14.0985 15.9861 15.7604 14.5322 17.783 13.7175C18.1673 13.5627 18.6042 13.7487 18.7589 14.133C18.9137 14.5172 18.7277 14.9541 18.3435 15.1089C16.629 15.7994 15.239 17.0241 14.3939 18.556Z" fill="white"/>
<path fill-rule="evenodd" clip-rule="evenodd" d="M21.5 20.75C21.0858 20.75 20.75 20.4142 20.75 20L20.75 11C20.75 10.5858 21.0858 10.25 21.5 10.25C21.9142 10.25 22.25 10.5858 22.25 11L22.25 20C22.25 20.4142 21.9142 20.75 21.5 20.75Z" fill="white"/>
</svg>
